<svg xmlns="http://www.w3.org/2000/svg" viewBox="0 0 1200 700"><defs><linearGradient id="r" x2="0" y2="1"><stop stop-color="#f9fafb"/><stop offset="1" stop-color="#d9dee4"/></linearGradient><filter id="ds"><feDropShadow dx="0" dy="12" stdDeviation="16" flood-opacity=".2"/></filter></defs><rect width="1200" height="700" fill="url(#r)"/><path d="M0 0h1200v700H0z" fill="#e8ecef"/><rect x="385" y="70" width="430" height="570" rx="12" fill="#243746" filter="url(#ds)"/><rect x="425" y="108" width="350" height="532" fill="#f5f7f8"/><rect x="475" y="170" width="250" height="330" rx="10" fill="#cfd8de"/><path d="M600 170v330" stroke="#a5b3bd" stroke-width="7"/><rect x="635" y="330" width="58" height="18" rx="9" fill="#5f7180"/><rect x="330" y="55" width="540" height="70" rx="16" fill="#d93643"/><text x="600" y="103" text-anchor="middle" font-family="Arial,sans-serif" font-size="34" font-weight="800" fill="#fff">EMERGENCY EXIT</text><path d="M600 530v58M570 560l30 30 30-30" stroke="#d93643" stroke-width="10" fill="none" stroke-linecap="round"/><circle cx="945" cy="160" r="30" fill="#ef6a68"/><path d="M945 110v100M895 160h100" stroke="#fff" stroke-width="10" stroke-linecap="round"/><text x="70" y="625" font-family="Arial,sans-serif" font-size="32" font-weight="700" fill="#263746">ADMIN BUILDING • EAST WING</text><text x="70" y="662" font-family="Arial,sans-serif" font-size="22" fill="#607486">Fire-exit door • Door does not close correctly</text></svg>