<svg xmlns="http://www.w3.org/2000/svg" viewBox="0 0 1200 700"><defs><linearGradient id="bg" x2="0" y2="1"><stop stop-color="#f8fafb"/><stop offset="1" stop-color="#e0e7ec"/></linearGradient><linearGradient id="wood" x2="1" y2="1"><stop stop-color="#8b5a36"/><stop offset="1" stop-color="#bd8151"/></linearGradient></defs><rect width="1200" height="700" fill="url(#bg)"/><path d="M0 520h1200v180H0z" fill="#cfd9df"/><rect x="110" y="120" width="980" height="24" rx="12" fill="#9d6b43"/><path d="M190 144v270M1010 144v270" stroke="#a97950" stroke-width="22"/><path d="M380 210h440v175H380z" fill="#e7edf1" stroke="#c1ccd3" stroke-width="8"/><path d="M420 385l-40 220M780 385l40 220M420 385l-10 220M780 385l10 220" stroke="#785238" stroke-width="22" stroke-linecap="round"/><path d="M420 400h360" stroke="#9b6842" stroke-width="28"/><path d="M690 275l80 70-70 55-60-55z" fill="#e55b61" opacity=".85"/><circle cx="920" cy="175" r="26" fill="#ef6a68"/><path d="M920 132v86M877 175h86" stroke="#fff" stroke-width="9" stroke-linecap="round"/><text x="70" y="625" font-family="Arial,sans-serif" font-size="32" font-weight="700" fill="#263746">CENTRAL LIBRARY</text><text x="70" y="662" font-family="Arial,sans-serif" font-size="22" fill="#607486">Furniture issue • Damaged reading chair</text></svg>